Gait_medial_07_analogdata.mot
version=1
nRows=27
nColumns=19
inDegrees=yes
endheader
time	1_ground_force_vx	1_ground_force_vy	1_ground_force_vz	1_ground_force_px	1_ground_force_py	1_ground_force_pz	1_ground_torque_x	1_ground_torque_y	1_ground_torque_z	2_ground_force_vx	2_ground_force_vy	2_ground_force_vz	2_ground_force_px	2_ground_force_py	2_ground_force_pz	2_ground_torque_x	2_ground_torque_y	2_ground_torque_z
0.232000	-30.527380	538.713440	-74.434743	-0.147622	0.000000	-0.350304	-0.114877	2.027226	-0.280105	0.000000	0.000000	-0.000000	-0.200000	0.000000	0.302000	0.000000	0.000000	-0.000000
0.233000	-31.240067	542.912537	-72.930760	-0.147348	0.000000	-0.348406	-0.121383	2.109480	-0.283372	0.000000	0.000000	-0.000000	-0.200000	0.000000	0.302000	0.000000	0.000000	-0.000000
0.234000	-30.794636	548.511292	-72.842297	-0.147612	0.000000	-0.348748	-0.121438	2.163044	-0.287252	0.000000	0.000000	-0.000000	-0.200000	0.000000	0.302000	0.000000	0.000000	-0.000000
0.235000	-31.061894	551.310669	-73.107701	-0.147289	0.000000	-0.348748	-0.120078	2.131245	-0.282618	0.000000	0.000000	-0.000000	-0.200000	0.000000	0.302000	0.000000	0.000000	-0.000000
0.236000	-31.418238	553.060303	-71.780667	-0.146795	0.000000	-0.348987	-0.107822	1.898012	-0.246339	0.000000	0.000000	-0.000000	-0.200000	0.000000	0.302000	0.000000	0.000000	-0.000000
0.237000	-30.883723	555.859680	-72.842297	-0.146698	0.000000	-0.349438	-0.128547	2.313652	-0.303191	0.000000	0.000000	-0.000000	-0.200000	0.000000	0.302000	0.000000	0.000000	-0.000000
0.238000	-31.685496	560.058716	-71.692197	-0.147458	0.000000	-0.347042	-0.141614	2.503105	-0.320418	0.000000	0.000000	-0.000000	-0.200000	0.000000	0.302000	0.000000	0.000000	-0.000000
0.239000	-30.438294	565.657471	-71.603726	-0.147197	0.000000	-0.347380	-0.137546	2.556125	-0.323567	0.000000	0.000000	-0.000000	-0.200000	0.000000	0.302000	0.000000	0.000000	-0.000000
0.240000	-30.705552	568.806824	-70.807500	-0.147252	0.000000	-0.347518	-0.135520	2.510449	-0.312511	0.000000	0.000000	-0.000000	-0.200000	0.000000	0.302000	0.000000	0.000000	-0.000000
0.241000	-30.883723	570.556396	-69.745870	-0.147055	0.000000	-0.348009	-0.131842	2.435695	-0.297744	0.000000	0.000000	-0.000000	-0.200000	0.000000	0.302000	0.000000	0.000000	-0.000000
0.242000	-30.171037	572.306030	-70.188214	-0.145940	0.000000	-0.348525	-0.143722	2.726221	-0.334347	0.000000	0.000000	-0.000000	-0.200000	0.000000	0.302000	0.000000	0.000000	-0.000000
0.243000	-30.972810	579.654419	-68.861180	-0.147964	0.000000	-0.345409	-0.163022	3.050953	-0.362444	0.000000	0.000000	-0.000000	-0.200000	0.000000	0.302000	0.000000	0.000000	-0.000000
0.244000	-28.567493	589.452209	-68.507306	-0.148093	0.000000	-0.344890	-0.164250	3.389081	-0.393886	0.000000	0.000000	-0.000000	-0.200000	0.000000	0.302000	0.000000	0.000000	-0.000000
0.245000	-28.032977	589.102295	-69.834340	-0.147862	0.000000	-0.344523	-0.161525	3.394377	-0.402382	0.000000	0.000000	-0.000000	-0.200000	0.000000	0.302000	0.000000	0.000000	-0.000000
0.246000	-28.211150	593.301392	-68.949650	-0.147787	0.000000	-0.344889	-0.152711	3.211628	-0.373235	0.000000	0.000000	-0.000000	-0.200000	0.000000	0.302000	0.000000	0.000000	-0.000000
0.247000	-26.518520	596.450684	-67.622608	-0.146685	0.000000	-0.344884	-0.153415	3.450585	-0.391210	0.000000	0.000000	-0.000000	-0.200000	0.000000	0.302000	0.000000	0.000000	-0.000000
0.248000	-27.854806	597.850342	-67.799550	-0.148059	0.000000	-0.343347	-0.169093	3.629257	-0.411578	0.000000	0.000000	-0.000000	-0.200000	0.000000	0.302000	0.000000	0.000000	-0.000000
0.249000	-26.251262	612.547119	-68.241894	-0.149008	0.000000	-0.342686	-0.172252	4.019340	-0.447782	0.000000	0.000000	-0.000000	-0.200000	0.000000	0.302000	0.000000	0.000000	-0.000000
0.250000	-26.340346	612.197205	-68.949650	-0.148512	0.000000	-0.342255	-0.168629	3.919231	-0.441409	1.238087	0.000000	0.357182	-0.170969	0.000000	0.227474	0.016103	0.080723	0.004646
0.251000	-26.518519	616.046326	-69.215054	-0.148259	0.000000	-0.341887	-0.150580	3.498083	-0.393022	0.000000	0.000000	-0.000000	-0.200000	0.000000	0.302000	0.000000	0.000000	-0.000000
0.252000	-26.607604	617.096130	-69.657398	-0.147244	0.000000	-0.341956	-0.144943	3.361575	-0.379452	0.000000	0.000000	-0.000000	-0.200000	0.000000	0.302000	0.000000	0.000000	-0.000000
0.253000	-28.478406	618.495789	-70.365155	-0.148300	0.000000	-0.340863	-0.170642	3.706021	-0.421627	0.000000	0.000000	-0.000000	-0.200000	0.000000	0.302000	0.000000	0.000000	-0.000000
0.254000	-28.389321	634.942139	-70.807499	-0.149227	0.000000	-0.339444	-0.171251	3.830112	-0.427127	0.000000	0.000000	-0.000000	-0.200000	0.000000	0.302000	0.000000	0.000000	-0.000000
0.255000	-29.814694	630.043274	-72.046071	-0.148622	0.000000	-0.339241	-0.171182	3.617411	-0.413655	0.000000	0.000000	-0.000000	-0.200000	0.000000	0.302000	0.000000	0.000000	-0.000000
0.256000	-31.507323	632.492676	-73.107701	-0.148705	0.000000	-0.339076	-0.162640	3.264909	-0.377380	0.000000	0.000000	-0.000000	-0.200000	0.000000	0.302000	0.000000	0.000000	-0.000000
0.257000	-31.596409	634.242310	-73.461583	-0.148135	0.000000	-0.338927	-0.136457	2.739128	-0.317261	0.000000	0.000000	-0.000000	-0.200000	0.000000	0.302000	0.000000	0.000000	-0.000000
0.258000	-32.220009	635.991943	-73.107701	-0.148820	0.000000	-0.340019	-0.164774	3.252472	-0.373874	0.000000	0.000000	-0.000000	-0.200000	0.000000	0.302000	0.000000	0.000000	-0.000000
